<?xml version="1.0"?>
<COLLADA xmlns="http://www.collada.org/2005/11/COLLADASchema" version="1.4.1">
	<asset>
		<contributor>
			<author>Assimp</author>
			<authoring_tool>Assimp Exporter</authoring_tool>
		</contributor>
		<created>2022-05-08T00:39:50</created>
		<modified>2022-05-08T00:39:50</modified>
		<unit name="meter" meter="1.000000" />
		<up_axis>Y_UP</up_axis>
	</asset>
	<library_effects>
		<effect id="initialShadingGroup-fx" name="initialShadingGroup">
			<profile_COMMON>
				<technique sid="standard">
					<lambert>
						<emission>
							<color sid="emission">0.000000   0.000000   0.000000   1.000000</color>
						</emission>
						<ambient>
							<color sid="ambient">0.000000   0.000000   0.000000   1.000000</color>
						</ambient>
						<diffuse>
							<color sid="diffuse">0.500000   0.500000   0.500000   1.000000</color>
						</diffuse>
						<specular>
							<color sid="specular">0.000000   0.000000   0.000000   1.000000</color>
						</specular>
						<shininess>
							<float sid="shininess">0.000000</float>
						</shininess>
						<transparency>
							<float sid="transparency">0.000000</float>
						</transparency>
						<index_of_refraction>
							<float sid="index_of_refraction">1.000000</float>
						</index_of_refraction>
					</lambert>
				</technique>
			</profile_COMMON>
		</effect>
	</library_effects>
	<library_materials>
		<material id="initialShadingGroup" name="initialShadingGroup">
			<instance_effect url="#initialShadingGroup-fx"/>
		</material>
	</library_materials>
	<library_geometries>
		<geometry id="meshId0" name="meshId0_name" >
			<mesh>
				<source id="meshId0-positions" name="meshId0-positions">
					<float_array id="meshId0-positions-array" count="504"> 
						-24.288759 4.999996 21.895647 -24.288759 48.934795 21.895647 -24.288759 48.934795 -22.039152 -24.288759 4.999996 -22.039152 -26.788761 -0.000002 26.895645 -26.788761 53.934792 26.895645 -26.788759 48.934795 21.895647 -26.788759 4.999996 21.895647 -26.788761 53.934792 -27.039150 -26.788759 48.934795 -22.039152 -26.788761 -0.000002 -27.039150 -26.788759 4.999996 -22.039152 -26.788759 4.999996 21.895647 -26.788759 48.934795 21.895647 -24.288759 48.934795 21.895647 -24.288759 4.999996 21.895647 -26.788759 48.934795 21.895647 -26.788759 48.934795 -22.039152 -24.288759 48.934795 -22.039152 -24.288759 48.934795 21.895647 -26.788759 48.934795 -22.039152 -26.788759 4.999996 -22.039152 -24.288759 4.999996 -22.039152 -24.288759 48.934795 -22.039152 -26.788759 4.999996 -22.039152 -26.788759 4.999996 21.895647 -24.288759 4.999996 21.895647 -24.288759 4.999996 -22.039152 -21.788761 51.434792 21.895647 22.146038 51.434792 21.895647 22.146038 51.434792 -22.039152 -21.788761 51.434792 -22.039152 -26.788761 53.934792 26.895645 27.146038 53.934792 26.895645 22.146038 53.934792 21.895647 -21.788761 53.934792 21.895647 27.146038 53.934792 -27.039150 22.146038 53.934792 -22.039152 -26.788761 53.934792 -27.039150 -21.788761 53.934792 -22.039152 -21.788761 53.934792 21.895647 22.146038 53.934792 21.895647 22.146038 51.434792 21.895647 -21.788761 51.434792 21.895647 22.146038 53.934792 21.895647 22.146038 53.934792 -22.039152 22.146038 51.434792 -22.039152 22.146038 51.434792 21.895647 22.146038 53.934792 -22.039152 -21.788761 53.934792 -22.039152 -21.788761 51.434792 -22.039152 22.146038 51.434792 -22.039152 -21.788761 53.934792 -22.039152 -21.788761 53.934792 21.895647 -21.788761 51.434792 21.895647 -21.788761 51.434792 -22.039152 24.646036 48.934795 21.895647 24.646036 4.999996 21.895647 24.646036 4.999996 -22.039152 24.646036 48.934795 -22.039152 27.146038 53.934792 26.895645 27.146038 -0.000002 26.895645 27.146036 4.999996 21.895647 27.146036 48.934795 21.895647 
						27.146038 -0.000002 -27.039150 27.146036 4.999996 -22.039152 27.146038 53.934792 -27.039150 27.146036 48.934795 -22.039152 27.146036 48.934795 21.895647 27.146036 4.999996 21.895647 24.646036 4.999996 21.895647 24.646036 48.934795 21.895647 27.146036 4.999996 21.895647 27.146036 4.999996 -22.039152 24.646036 4.999996 -22.039152 24.646036 4.999996 21.895647 27.146036 4.999996 -22.039152 27.146036 48.934795 -22.039152 24.646036 48.934795 -22.039152 24.646036 4.999996 -22.039152 27.146036 48.934795 -22.039152 27.146036 48.934795 21.895647 24.646036 48.934795 21.895647 24.646036 48.934795 -22.039152 -21.788761 2.499998 -22.039152 22.146038 2.499998 -22.039152 22.146038 2.499998 21.895647 -21.788761 2.499998 21.895647 -26.788761 -0.000002 -27.039150 27.146038 -0.000002 -27.039150 22.146038 -0.000002 -22.039152 -21.788761 -0.000002 -22.039152 27.146038 -0.000002 26.895645 22.146038 -0.000002 21.895647 -26.788761 -0.000002 26.895645 -21.788761 -0.000002 21.895647 -21.788761 -0.000002 -22.039152 22.146038 -0.000002 -22.039152 22.146038 2.499998 -22.039152 -21.788761 2.499998 -22.039152 22.146038 -0.000002 -22.039152 22.146038 -0.000002 21.895647 22.146038 2.499998 21.895647 22.146038 2.499998 -22.039152 22.146038 -0.000002 21.895647 -21.788761 -0.000002 21.895647 -21.788761 2.499998 21.895647 22.146038 2.499998 21.895647 -21.788761 -0.000002 21.895647 -21.788761 -0.000002 -22.039152 -21.788761 2.499998 -22.039152 -21.788761 2.499998 21.895647 -21.788761 4.999996 24.395645 22.146038 4.999996 24.395645 22.146038 48.934795 24.395645 -21.788761 48.934795 24.395645 -26.788761 -0.000002 26.895645 27.146038 -0.000002 26.895645 22.146038 4.999996 26.895645 -21.788761 4.999996 26.895645 27.146038 53.934792 26.895645 22.146038 48.934795 26.895645 -26.788761 53.934792 26.895645 -21.788761 48.934795 26.895645 -21.788761 4.999996 26.895645 22.146038 4.999996 26.895645 22.146038 4.999996 24.395645 -21.788761 4.999996 24.395645 
						22.146038 4.999996 26.895645 22.146038 48.934795 26.895645 22.146038 48.934795 24.395645 22.146038 4.999996 24.395645 22.146038 48.934795 26.895645 -21.788761 48.934795 26.895645 -21.788761 48.934795 24.395645 22.146038 48.934795 24.395645 -21.788761 48.934795 26.895645 -21.788761 4.999996 26.895645 -21.788761 4.999996 24.395645 -21.788761 48.934795 24.395645 -21.788761 48.934795 -24.539150 22.146038 48.934795 -24.539150 22.146038 4.999996 -24.539150 -21.788761 4.999996 -24.539150 -26.788761 53.934792 -27.039150 27.146038 53.934792 -27.039150 22.146038 48.934795 -27.039150 -21.788761 48.934795 -27.039150 27.146038 -0.000002 -27.039150 22.146038 4.999996 -27.039150 -26.788761 -0.000002 -27.039150 -21.788761 4.999996 -27.039150 -21.788761 48.934795 -27.039150 22.146038 48.934795 -27.039150 22.146038 48.934795 -24.539150 -21.788761 48.934795 -24.539150 22.146038 48.934795 -27.039150 22.146038 4.999996 -27.039150 22.146038 4.999996 -24.539150 22.146038 48.934795 -24.539150 22.146038 4.999996 -27.039150 -21.788761 4.999996 -27.039150 -21.788761 4.999996 -24.539150 22.146038 4.999996 -24.539150 -21.788761 4.999996 -27.039150 -21.788761 48.934795 -27.039150 -21.788761 48.934795 -24.539150 -21.788761 4.999996 -24.539150 
					</float_array>
					<technique_common>
						<accessor count="168" offset="0" source="#meshId0-positions-array" stride="3">
							<param name="X" type="float" />
							<param name="Y" type="float" />
							<param name="Z" type="float" />
						</accessor>
					</technique_common>
				</source>
				<source id="meshId0-normals" name="meshId0-normals">
					<float_array id="meshId0-normals-array" count="504"> 
						-1.000000 0.000000 0.000000 -1.000000 0.000000 0.000000 -1.000000 0.000000 0.000000 -1.000000 0.000000 0.000000 -1.000000 0.000000 0.000000 -1.000000 -0.000000 -0.000000 -1.000000 -0.000000 -0.000000 -1.000000 0.000000 0.000000 -1.000000 0.000000 0.000000 -1.000000 0.000000 0.000000 -1.000000 0.000000 0.000000 -1.000000 0.000000 0.000000 0.000000 0.000000 -1.000000 0.000000 0.000000 -1.000000 0.000000 0.000000 -1.000000 0.000000 0.000000 -1.000000 0.000000 -1.000000 0.000000 0.000000 -1.000000 0.000000 0.000000 -1.000000 0.000000 0.000000 -1.000000 0.000000 0.000000 0.000000 1.000000 0.000000 0.000000 1.000000 0.000000 0.000000 1.000000 0.000000 0.000000 1.000000 0.000000 1.000000 0.000000 0.000000 1.000000 0.000000 0.000000 1.000000 0.000000 0.000000 1.000000 0.000000 0.000000 1.000000 0.000000 0.000000 1.000000 0.000000 0.000000 1.000000 0.000000 0.000000 1.000000 0.000000 0.000000 1.000000 0.000000 0.000000 1.000000 0.000000 0.000000 1.000000 0.000000 0.000000 1.000000 0.000000 0.000000 1.000000 0.000000 0.000000 1.000000 0.000000 0.000000 1.000000 0.000000 0.000000 1.000000 0.000000 0.000000 0.000000 -1.000000 0.000000 0.000000 -1.000000 0.000000 0.000000 -1.000000 0.000000 0.000000 -1.000000 -1.000000 0.000000 0.000000 -1.000000 0.000000 0.000000 -1.000000 0.000000 0.000000 -1.000000 0.000000 0.000000 0.000000 0.000000 1.000000 0.000000 0.000000 1.000000 0.000000 0.000000 1.000000 0.000000 0.000000 1.000000 1.000000 0.000000 0.000000 1.000000 0.000000 0.000000 1.000000 0.000000 0.000000 1.000000 0.000000 0.000000 1.000000 0.000000 0.000000 1.000000 0.000000 0.000000 1.000000 0.000000 0.000000 1.000000 0.000000 0.000000 1.000000 0.000000 0.000000 1.000000 0.000000 0.000000 1.000000 0.000000 0.000000 1.000000 0.000000 0.000000 
						1.000000 0.000000 0.000000 1.000000 0.000000 0.000000 1.000000 0.000000 0.000000 1.000000 0.000000 0.000000 0.000000 0.000000 -1.000000 0.000000 0.000000 -1.000000 0.000000 0.000000 -1.000000 0.000000 0.000000 -1.000000 0.000000 1.000000 0.000000 0.000000 1.000000 0.000000 0.000000 1.000000 0.000000 0.000000 1.000000 0.000000 0.000000 0.000000 1.000000 0.000000 0.000000 1.000000 0.000000 0.000000 1.000000 0.000000 0.000000 1.000000 0.000000 -1.000000 0.000000 0.000000 -1.000000 0.000000 0.000000 -1.000000 0.000000 0.000000 -1.000000 0.000000 0.000000 -1.000000 0.000000 0.000000 -1.000000 0.000000 0.000000 -1.000000 0.000000 0.000000 -1.000000 0.000000 0.000000 -1.000000 0.000000 0.000000 -1.000000 0.000000 0.000000 -1.000000 0.000000 0.000000 -1.000000 0.000000 0.000000 -1.000000 0.000000 0.000000 -1.000000 0.000000 0.000000 -1.000000 0.000000 0.000000 -1.000000 0.000000 0.000000 0.000000 1.000000 0.000000 0.000000 1.000000 0.000000 0.000000 1.000000 0.000000 0.000000 1.000000 -1.000000 0.000000 0.000000 -1.000000 0.000000 0.000000 -1.000000 0.000000 0.000000 -1.000000 0.000000 0.000000 0.000000 0.000000 -1.000000 0.000000 0.000000 -1.000000 0.000000 0.000000 -1.000000 0.000000 0.000000 -1.000000 1.000000 0.000000 0.000000 1.000000 0.000000 0.000000 1.000000 0.000000 0.000000 1.000000 0.000000 0.000000 0.000000 0.000000 1.000000 0.000000 0.000000 1.000000 0.000000 0.000000 1.000000 0.000000 0.000000 1.000000 0.000000 0.000000 1.000000 0.000000 0.000000 1.000000 0.000000 0.000000 1.000000 0.000000 0.000000 1.000000 0.000000 0.000000 1.000000 0.000000 0.000000 1.000000 0.000000 0.000000 1.000000 0.000000 0.000000 1.000000 0.000000 1.000000 0.000000 0.000000 1.000000 0.000000 0.000000 1.000000 0.000000 0.000000 1.000000 0.000000 
						-1.000000 0.000000 0.000000 -1.000000 0.000000 0.000000 -1.000000 0.000000 0.000000 -1.000000 0.000000 0.000000 0.000000 -1.000000 0.000000 0.000000 -1.000000 0.000000 0.000000 -1.000000 0.000000 0.000000 -1.000000 0.000000 1.000000 0.000000 0.000000 1.000000 0.000000 0.000000 1.000000 0.000000 0.000000 1.000000 0.000000 0.000000 0.000000 0.000000 -1.000000 0.000000 0.000000 -1.000000 0.000000 0.000000 -1.000000 0.000000 0.000000 -1.000000 0.000000 0.000000 -1.000000 0.000000 0.000000 -1.000000 0.000000 0.000000 -1.000000 0.000000 0.000000 -1.000000 0.000000 0.000000 -1.000000 0.000000 0.000000 -1.000000 0.000000 0.000000 -1.000000 0.000000 0.000000 -1.000000 0.000000 -1.000000 0.000000 0.000000 -1.000000 0.000000 0.000000 -1.000000 0.000000 0.000000 -1.000000 0.000000 -1.000000 0.000000 0.000000 -1.000000 0.000000 0.000000 -1.000000 0.000000 0.000000 -1.000000 0.000000 0.000000 0.000000 1.000000 0.000000 0.000000 1.000000 0.000000 0.000000 1.000000 0.000000 0.000000 1.000000 0.000000 1.000000 0.000000 0.000000 1.000000 0.000000 0.000000 1.000000 0.000000 0.000000 1.000000 0.000000 0.000000 
					</float_array>
					<technique_common>
						<accessor count="168" offset="0" source="#meshId0-normals-array" stride="3">
							<param name="X" type="float" />
							<param name="Y" type="float" />
							<param name="Z" type="float" />
						</accessor>
					</technique_common>
				</source>
				<source id="meshId0-tangents" name="meshId0-tangents">
					<float_array id="meshId0-tangents-array" count="504"> 
						0.000000 0.000003 -1.000000 0.000000 0.000003 -1.000000 0.000000 0.000003 -1.000000 0.000000 0.000003 -1.000000 0.000000 -0.000003 1.000000 0.000000 0.000003 1.000000 0.000000 0.000003 1.000000 0.000000 -0.000002 1.000000 0.000000 -0.000003 1.000000 0.000000 -0.000002 1.000000 0.000000 0.000003 1.000000 0.000000 0.000003 1.000000 1.000000 0.000000 0.000000 1.000000 0.000000 0.000000 1.000000 0.000000 0.000000 1.000000 0.000000 0.000000 -0.000003 0.000000 -1.000000 -0.000003 0.000000 -1.000000 -0.000003 0.000000 -1.000000 -0.000003 0.000000 -1.000000 -1.000000 0.000000 0.000000 -1.000000 0.000000 0.000000 -1.000000 0.000000 0.000000 -1.000000 0.000000 0.000000 0.000003 0.000000 -1.000000 0.000003 0.000000 -1.000000 0.000003 0.000000 -1.000000 0.000003 0.000000 -1.000000 -0.000003 0.000000 -1.000000 -0.000003 0.000000 -1.000000 -0.000003 0.000000 -1.000000 -0.000003 0.000000 -1.000000 1.000000 0.000000 -0.000003 1.000000 0.000000 0.000003 1.000000 0.000000 0.000002 1.000000 0.000000 -0.000003 1.000000 0.000000 -0.000003 1.000000 0.000000 -0.000003 1.000000 0.000000 0.000003 1.000000 0.000000 0.000002 0.000051 -1.000000 0.000000 0.000051 -1.000000 0.000000 0.000051 -1.000000 0.000000 0.000051 -1.000000 0.000000 0.000000 -0.000003 -1.000000 0.000000 -0.000003 -1.000000 0.000000 -0.000003 -1.000000 0.000000 -0.000003 -1.000000 0.000051 1.000000 0.000000 0.000051 1.000000 0.000000 0.000051 1.000000 0.000000 0.000051 1.000000 0.000000 0.000000 0.000003 -1.000000 0.000000 0.000003 -1.000000 0.000000 0.000003 -1.000000 0.000000 0.000003 -1.000000 0.000000 0.000009 1.000000 0.000000 0.000009 1.000000 0.000000 0.000009 1.000000 0.000000 0.000009 1.000000 0.000000 -0.000003 -1.000000 0.000000 0.000003 -1.000000 0.000000 0.000003 -1.000000 0.000000 -0.000002 -1.000000 
						0.000000 -0.000003 -1.000000 0.000000 -0.000002 -1.000000 0.000000 0.000003 -1.000000 0.000000 0.000003 -1.000000 1.000000 0.000000 0.000000 1.000000 0.000000 0.000000 1.000000 0.000000 0.000000 1.000000 0.000000 0.000000 -0.000012 0.000000 1.000000 -0.000009 0.000000 1.000000 -0.000009 0.000000 1.000000 -0.000012 0.000000 1.000000 -1.000000 0.000000 0.000000 -1.000000 0.000000 0.000000 -1.000000 0.000000 0.000000 -1.000000 0.000000 0.000000 0.000009 0.000000 1.000000 0.000009 0.000000 1.000000 0.000009 0.000000 1.000000 0.000009 0.000000 1.000000 0.000009 0.000000 1.000000 0.000009 0.000000 1.000000 0.000009 0.000000 1.000000 0.000009 0.000000 1.000000 1.000000 0.000000 -0.000007 1.000000 0.000000 0.000008 1.000000 0.000000 0.000007 1.000000 0.000000 -0.000010 1.000000 0.000000 -0.000007 1.000000 0.000000 -0.000010 1.000000 0.000000 0.000008 1.000000 0.000000 0.000007 0.000000 1.000000 0.000000 0.000000 1.000000 0.000000 0.000000 1.000000 0.000000 0.000000 1.000000 0.000000 0.000000 -0.000012 1.000000 0.000000 -0.000009 1.000000 0.000000 -0.000009 1.000000 0.000000 -0.000011 1.000000 0.000000 -1.000000 0.000000 0.000000 -1.000000 0.000000 0.000000 -1.000000 0.000000 0.000000 -1.000000 0.000000 0.000000 0.000012 1.000000 0.000000 0.000009 1.000000 0.000000 0.000009 1.000000 0.000000 0.000011 1.000000 0.000003 1.000000 0.000000 0.000004 1.000000 0.000000 0.000006 1.000000 0.000000 0.000004 1.000000 0.000000 1.000000 -0.000008 0.000000 1.000000 0.000008 0.000000 1.000000 0.000008 0.000000 1.000000 -0.000008 0.000000 1.000000 0.000003 0.000000 1.000000 0.000002 0.000000 1.000000 -0.000002 0.000000 1.000000 -0.000003 0.000000 0.000000 0.000000 -1.000000 0.000000 0.000000 -1.000000 0.000000 0.000000 -1.000000 0.000000 0.000000 -1.000000 
						0.000000 1.000000 0.000006 0.000000 1.000000 0.000006 0.000000 1.000000 0.000006 0.000000 1.000000 0.000006 0.000000 0.000000 1.000000 0.000050 0.000000 1.000000 0.000051 0.000000 1.000000 0.000002 0.000000 1.000000 0.000000 1.000000 0.000000 0.000000 1.000000 -0.000003 0.000000 1.000000 -0.000003 0.000000 1.000000 -0.000000 0.000003 -1.000000 0.000000 0.000003 -1.000000 0.000000 0.000003 -1.000000 0.000000 0.000003 -1.000000 0.000000 1.000000 -0.000003 0.000000 1.000000 0.000003 0.000000 1.000000 0.000002 0.000000 1.000000 -0.000003 0.000000 1.000000 -0.000003 0.000000 1.000000 -0.000003 0.000000 1.000000 0.000003 0.000000 1.000000 0.000002 0.000000 0.000000 0.000000 1.000000 0.000000 0.000000 1.000000 0.000000 0.000000 1.000000 0.000000 0.000000 1.000000 0.000000 -1.000000 -0.000006 0.000000 -1.000000 -0.000003 0.000000 -1.000000 -0.000003 0.000000 -1.000000 -0.000006 0.000051 0.000000 -1.000000 0.000050 0.000000 -1.000000 0.000050 0.000000 -1.000000 0.000051 0.000000 -1.000000 0.000000 -1.000000 0.000006 0.000000 -1.000000 0.000003 0.000000 -1.000000 0.000003 0.000000 -1.000000 0.000006 
					</float_array>
					<technique_common>
						<accessor count="168" offset="0" source="#meshId0-tangents-array" stride="3">
							<param name="X" type="float" />
							<param name="Y" type="float" />
							<param name="Z" type="float" />
						</accessor>
					</technique_common>
				</source>
				<source id="meshId0-bitangents" name="meshId0-bitangents">
					<float_array id="meshId0-bitangents-array" count="504"> 
						-0.000000 -1.000000 -0.000003 -0.000000 -1.000000 -0.000003 -0.000000 -1.000000 -0.000003 -0.000000 -1.000000 -0.000003 0.000000 1.000000 0.000003 0.000000 1.000000 -0.000003 0.000000 1.000000 -0.000003 0.000000 1.000000 0.000002 0.000000 1.000000 0.000003 0.000000 1.000000 0.000002 0.000000 1.000000 -0.000003 0.000000 1.000000 -0.000003 0.000000 -1.000000 0.000000 0.000000 -1.000000 0.000000 0.000000 -1.000000 0.000000 0.000000 -1.000000 0.000000 1.000000 0.000000 -0.000003 1.000000 0.000000 -0.000003 1.000000 0.000000 -0.000003 1.000000 0.000000 -0.000003 0.000000 -1.000000 0.000000 0.000000 -1.000000 0.000000 0.000000 -1.000000 0.000000 0.000000 -1.000000 0.000000 -1.000000 0.000000 -0.000003 -1.000000 0.000000 -0.000003 -1.000000 0.000000 -0.000003 -1.000000 0.000000 -0.000003 -1.000000 0.000000 0.000003 -1.000000 0.000000 0.000003 -1.000000 0.000000 0.000003 -1.000000 0.000000 0.000003 -0.000003 0.000000 -1.000000 0.000003 0.000000 -1.000000 0.000002 0.000000 -1.000000 -0.000003 0.000000 -1.000000 -0.000003 0.000000 -1.000000 -0.000003 0.000000 -1.000000 0.000003 0.000000 -1.000000 0.000002 0.000000 -1.000000 -1.000000 -0.000051 -0.000000 -1.000000 -0.000051 -0.000000 -1.000000 -0.000051 -0.000000 -1.000000 -0.000051 -0.000000 0.000000 -1.000000 0.000003 0.000000 -1.000000 0.000003 0.000000 -1.000000 0.000003 0.000000 -1.000000 0.000003 -1.000000 0.000051 0.000000 -1.000000 0.000051 0.000000 -1.000000 0.000051 0.000000 -1.000000 0.000051 0.000000 0.000000 1.000000 0.000003 0.000000 1.000000 0.000003 0.000000 1.000000 0.000003 0.000000 1.000000 0.000003 0.000000 -1.000000 0.000009 0.000000 -1.000000 0.000009 0.000000 -1.000000 0.000009 0.000000 -1.000000 0.000009 0.000000 1.000000 -0.000003 0.000000 1.000000 0.000003 0.000000 1.000000 0.000003 0.000000 1.000000 -0.000002 
						0.000000 1.000000 -0.000003 0.000000 1.000000 -0.000002 0.000000 1.000000 0.000003 0.000000 1.000000 0.000003 0.000000 -1.000000 0.000000 0.000000 -1.000000 0.000000 0.000000 -1.000000 0.000000 0.000000 -1.000000 0.000000 1.000000 0.000000 0.000012 1.000000 0.000000 0.000009 1.000000 0.000000 0.000009 1.000000 0.000000 0.000012 0.000000 -1.000000 0.000000 0.000000 -1.000000 0.000000 0.000000 -1.000000 0.000000 0.000000 -1.000000 0.000000 -1.000000 0.000000 0.000009 -1.000000 0.000000 0.000009 -1.000000 0.000000 0.000009 -1.000000 0.000000 0.000009 -1.000000 0.000000 0.000009 -1.000000 0.000000 0.000009 -1.000000 0.000000 0.000009 -1.000000 0.000000 0.000009 0.000007 0.000000 1.000000 -0.000008 0.000000 1.000000 -0.000007 0.000000 1.000000 0.000010 0.000000 1.000000 0.000007 0.000000 1.000000 0.000010 0.000000 1.000000 -0.000008 0.000000 1.000000 -0.000007 0.000000 1.000000 -1.000000 0.000000 0.000000 -1.000000 0.000000 0.000000 -1.000000 0.000000 0.000000 -1.000000 0.000000 0.000000 0.000000 1.000000 0.000012 0.000000 1.000000 0.000009 0.000000 1.000000 0.000009 0.000000 1.000000 0.000011 -1.000000 -0.000000 -0.000000 -1.000000 -0.000000 -0.000000 -1.000000 -0.000000 -0.000000 -1.000000 -0.000000 -0.000000 0.000000 -1.000000 0.000012 0.000000 -1.000000 0.000009 0.000000 -1.000000 0.000009 0.000000 -1.000000 0.000011 -1.000000 0.000003 0.000000 -1.000000 0.000004 0.000000 -1.000000 0.000006 0.000000 -1.000000 0.000004 0.000000 0.000008 1.000000 0.000000 -0.000008 1.000000 0.000000 -0.000008 1.000000 0.000000 0.000008 1.000000 0.000000 -0.000003 1.000000 0.000000 -0.000002 1.000000 0.000000 0.000002 1.000000 0.000000 0.000003 1.000000 0.000000 -1.000000 0.000000 0.000000 -1.000000 0.000000 0.000000 -1.000000 0.000000 0.000000 -1.000000 0.000000 0.000000 
						0.000000 0.000006 -1.000000 0.000000 0.000006 -1.000000 0.000000 0.000006 -1.000000 0.000000 0.000006 -1.000000 -1.000000 0.000000 0.000000 -1.000000 0.000000 0.000050 -1.000000 0.000000 0.000051 -1.000000 0.000000 0.000002 0.000000 0.000000 1.000000 0.000000 0.000003 1.000000 0.000000 0.000003 1.000000 0.000000 0.000000 1.000000 -1.000000 -0.000003 -0.000000 -1.000000 -0.000003 -0.000000 -1.000000 -0.000003 -0.000000 -1.000000 -0.000003 -0.000000 -0.000003 -1.000000 -0.000000 0.000003 -1.000000 0.000000 0.000002 -1.000000 0.000000 -0.000003 -1.000000 -0.000000 -0.000003 -1.000000 0.000000 -0.000003 -1.000000 0.000000 0.000003 -1.000000 0.000000 0.000002 -1.000000 0.000000 -1.000000 0.000000 0.000000 -1.000000 0.000000 0.000000 -1.000000 0.000000 0.000000 -1.000000 0.000000 0.000000 0.000000 -0.000006 1.000000 0.000000 -0.000003 1.000000 0.000000 -0.000003 1.000000 0.000000 -0.000006 1.000000 -1.000000 0.000000 -0.000051 -1.000000 0.000000 -0.000050 -1.000000 0.000000 -0.000050 -1.000000 0.000000 -0.000051 0.000000 -0.000006 -1.000000 0.000000 -0.000003 -1.000000 0.000000 -0.000003 -1.000000 0.000000 -0.000006 -1.000000 
					</float_array>
					<technique_common>
						<accessor count="168" offset="0" source="#meshId0-bitangents-array" stride="3">
							<param name="X" type="float" />
							<param name="Y" type="float" />
							<param name="Z" type="float" />
						</accessor>
					</technique_common>
				</source>
				<source id="meshId0-tex0" name="meshId0-tex0">
					<float_array id="meshId0-tex0-array" count="336"> 
						0.576899 0.423100 0.576899 0.076899 0.923100 0.076900 0.923100 0.423101 1.000000 0.000000 1.000000 0.500000 0.953647 0.453648 0.953647 0.046352 0.500000 0.500000 0.546352 0.453648 0.500000 0.000000 0.546352 0.046352 0.557199 0.423100 0.557199 0.076899 0.576899 0.076899 0.576899 0.423100 0.576899 0.057199 0.923100 0.057200 0.923100 0.076900 0.576899 0.076899 0.942800 0.076900 0.942799 0.423101 0.923100 0.423101 0.923100 0.076900 0.923100 0.442801 0.576899 0.442800 0.576899 0.423100 0.923100 0.423101 0.076899 0.423101 0.076899 0.076900 0.423101 0.076899 0.423101 0.423100 0.000000 0.000000 0.500000 0.000000 0.453648 0.046352 0.046352 0.046352 0.500000 0.500000 0.453648 0.453648 0.000000 0.500000 0.046352 0.453648 0.057200 0.423100 0.057200 0.076899 0.076899 0.076900 0.076899 0.423101 0.076899 0.057200 0.423101 0.057199 0.423101 0.076899 0.076899 0.076900 0.442800 0.076900 0.442800 0.423101 0.423101 0.423100 0.423101 0.076899 0.423101 0.442800 0.076899 0.442801 0.076899 0.423101 0.423101 0.423100 0.923102 0.076901 0.923100 0.423102 0.576899 0.423099 0.576901 0.076898 0.500000 0.500000 0.500000 0.000000 0.546352 0.046352 0.546352 0.453648 
						1.000000 0.000000 0.953647 0.046352 1.000000 0.500000 0.953647 0.453648 0.942801 0.076901 0.942801 0.423102 0.923100 0.423102 0.923102 0.076901 0.923100 0.442802 0.576899 0.442798 0.576899 0.423099 0.923100 0.423102 0.557199 0.423099 0.557202 0.076898 0.576901 0.076898 0.576899 0.423099 0.576902 0.057198 0.923103 0.057201 0.923102 0.076901 0.576901 0.076898 0.576898 0.923099 0.576900 0.576898 0.923101 0.576901 0.923098 0.923102 0.500000 0.500000 1.000000 0.500000 0.953647 0.546353 0.546352 0.546353 1.000000 1.000000 0.953647 0.953647 0.500000 1.000000 0.546352 0.953647 0.557199 0.923099 0.557199 0.576898 0.576900 0.576898 0.576898 0.923099 0.576901 0.557198 0.923102 0.557202 0.923101 0.576901 0.576900 0.576898 0.942801 0.576901 0.942798 0.923102 0.923098 0.923102 0.923101 0.576901 0.923098 0.942802 0.576897 0.942798 0.576898 0.923099 0.923098 0.923102 0.076899 0.923100 0.076900 0.576899 0.423101 0.576901 0.423099 0.923101 0.000000 0.500000 0.500000 0.500000 0.453648 0.546353 0.046352 0.546353 0.500000 1.000000 0.453648 0.953648 0.000000 1.000000 0.046352 0.953648 0.057199 0.923100 0.057199 0.576899 0.076900 0.576899 0.076899 0.923100 
						0.076900 0.557199 0.423101 0.557201 0.423101 0.576901 0.076900 0.576899 0.442801 0.576901 0.442799 0.923102 0.423099 0.923101 0.423101 0.576901 0.423100 0.942801 0.076898 0.942801 0.076899 0.923100 0.423099 0.923101 0.076899 0.423100 0.076900 0.076899 0.423101 0.076900 0.423099 0.423101 0.000000 0.000000 0.500000 0.000000 0.453648 0.046352 0.046352 0.046352 0.500000 0.500000 0.453648 0.453648 0.000000 0.500000 0.046352 0.453648 0.057199 0.423100 0.057199 0.076899 0.076900 0.076899 0.076899 0.423100 0.076900 0.057199 0.423101 0.057201 0.423101 0.076900 0.076900 0.076899 0.442801 0.076901 0.442799 0.423102 0.423099 0.423101 0.423101 0.076900 0.423099 0.442801 0.076898 0.442799 0.076899 0.423100 0.423099 0.423101 
					</float_array>
					<technique_common>
						<accessor count="168" offset="0" source="#meshId0-tex0-array" stride="2">
							<param name="S" type="float" />
							<param name="T" type="float" />
						</accessor>
					</technique_common>
				</source>
				<vertices id="meshId0-vertices">
					<input semantic="POSITION" source="#meshId0-positions" />
				</vertices>
				<polylist count="108" material="defaultMaterial">
					<input offset="0" semantic="VERTEX" source="#meshId0-vertices" />
					<input offset="0" semantic="NORMAL" source="#meshId0-normals" />
					<input offset="0" semantic="TANGENT" source="#meshId0-tangents" />
					<input offset="0" semantic="BINORMAL" source="#meshId0-bitangents" />
					<input offset="0" semantic="TEXCOORD" source="#meshId0-tex0" set="0" />
					<vcount>
						3 3 3 3 3 3 3 3 3 3 3 3 3 3 3 3 3 3 3 3 3 3 3 3 3 3 3 3 3 3 3 3 3 3 3 3 3 3 3 3 3 3 3 3 3 3 3 3 3 3 3 3 3 3 3 3 3 3 3 3 3 3 3 3 
						3 3 3 3 3 3 3 3 3 3 3 3 3 3 3 3 3 3 3 3 3 3 3 3 3 3 3 3 3 3 3 3 3 3 3 3 3 3 3 3 3 3 3 3 
					</vcount>
					<p>
						3 0 1 1 2 3 7 4 5 5 6 7 6 5 8 8 9 6 9 8 10 10 11 9 11 10 4 4 7 11 15 12 13 13 14 15 19 16 17 17 18 19 23 20 21 21 22 23 27 24 25 25 26 27 31 28 29 29 30 31 35 32 33 33 34 35 34 33 36 36 37 34 37 36 38 38 39 37 39 38 32 32 35 39 43 40 41 41 42 43 47 44 45 45 46 47 51 48 49 49 50 51 55 52 53 53 54 55 59 56 57 57 58 59 63 60 61 61 62 63 62 61 64 64 65 62 65 64 66 66 67 65 67 66 60 60 63 67 71 68 69 69 70 71 75 72 73 73 74 75 79 76 77 77 78 79 83 80 81 81 82 83 87 84 85 85 86 87 91 88 89 89 90 91 90 89 92 92 93 90 93 92 94 94 95 93 95 94 88 88 91 95 
						99 96 97 97 98 99 103 100 101 101 102 103 107 104 105 105 106 107 111 108 109 109 110 111 115 112 113 113 114 115 119 116 117 117 118 119 118 117 120 120 121 118 121 120 122 122 123 121 123 122 116 116 119 123 127 124 125 125 126 127 131 128 129 129 130 131 135 132 133 133 134 135 139 136 137 137 138 139 143 140 141 141 142 143 147 144 145 145 146 147 146 145 148 148 149 146 149 148 150 150 151 149 151 150 144 144 147 151 155 152 153 153 154 155 159 156 157 157 158 159 163 160 161 161 162 163 167 164 165 165 166 167 
					</p>
				</polylist>
			</mesh>
		</geometry>
	</library_geometries>
	<library_visual_scenes>
		<visual_scene id="Crate%20FInal%20with%20UVs.obj" name="Crate%20FInal%20with%20UVs.obj">
			<node id="default" name="default">
				<matrix>1.000000 0.000000 0.000000 0.000000 0.000000 1.000000 0.000000 0.000000 0.000000 0.000000 1.000000 0.000000 0.000000 0.000000 0.000000 1.000000</matrix>
			</node>
			<node id="pCube7" name="pCube7">
				<matrix>1.000000 0.000000 0.000000 0.000000 0.000000 1.000000 0.000000 0.000000 0.000000 0.000000 1.000000 0.000000 0.000000 0.000000 0.000000 1.000000</matrix>
				<instance_geometry url="#meshId0">
					<bind_material>
						<technique_common>
							<instance_material symbol="defaultMaterial" target="#initialShadingGroup" />
						</technique_common>
					</bind_material>
				</instance_geometry>
			</node>
		</visual_scene>
	</library_visual_scenes>
	<scene>
		<instance_visual_scene url="#Crate%20FInal%20with%20UVs.obj" />
	</scene>
</COLLADA>
